<svg width="48" height="56" viewBox="0 0 48 56" fill="none" xmlns="http://www.w3.org/2000/svg">
<path fill-rule="evenodd" clip-rule="evenodd" d="M8 0C3.5817 0 0 3.5817 0 8V40C0 44.4183 3.5817 48 8 48H18L24 56L30 48H40C44.4183 48 48 44.4183 48 40V8C48 3.5817 44.4183 0 40 0H8ZM24 9.5C25.379 9.5 26.4976 10.6166 26.5 11.9957L26.5133 19.6469L33.1385 15.8371L33.1461 15.8328C34.3415 15.1453 35.8679 15.5557 36.5574 16.75C37.2469 17.9443 36.8391 19.4713 35.6461 20.1629L35.6385 20.1672L29.0265 24L35.6385 27.8328L35.6461 27.8371C36.8391 28.5287 37.2469 30.0557 36.5574 31.25C35.8679 32.4443 34.3415 32.8547 33.1461 32.1672L33.1385 32.1629L26.5133 28.3531L26.5 36.0043C26.4976 37.3834 25.379 38.5 24 38.5C22.621 38.5 21.5024 37.3834 21.5 36.0043L21.4867 28.3531L14.8614 32.1629L14.8539 32.1672C13.6585 32.8547 12.1321 32.4443 11.4426 31.25C10.7531 30.0557 11.1609 28.5287 12.3539 27.8371L18.9735 24L12.3539 20.1629C11.1609 19.4713 10.7531 17.9443 11.4426 16.75C12.1321 15.5557 13.6585 15.1453 14.8539 15.8328L14.8614 15.8371L21.4867 19.6469L21.5 11.9957C21.5024 10.6166 22.621 9.5 24 9.5Z" fill="#FF0000"/>
</svg>
